<?xml version="1.0" standalone="no"?>
<!DOCTYPE svg PUBLIC "-//W3C//DTD SVG 20010904//EN"
 "http://www.w3.org/TR/2001/REC-SVG-20010904/DTD/svg10.dtd">
<svg version="1.0" xmlns="http://www.w3.org/2000/svg"
 width="1412.000000pt" height="201.000000pt" viewBox="0 0 1412.000000 201.000000"
 preserveAspectRatio="xMidYMid meet">

<g transform="translate(0.000000,201.000000) scale(0.100000,-0.100000)"
fill="#000000" stroke="none">
<path d="M3410 1363 c0 -605 -2 -651 -19 -688 -21 -47 -88 -111 -140 -132 -54
-23 -150 -20 -204 6 -58 28 -122 98 -136 147 -7 26 -11 254 -11 674 l0 635
-270 -270 -270 -270 0 -375 c0 -469 10 -538 102 -695 53 -91 192 -229 283
-283 120 -70 209 -94 365 -99 259 -9 424 54 600 227 97 96 155 184 197 305
l28 80 3 693 3 692 -266 0 -265 0 0 -647z"/>
<path d="M5890 1755 l-255 -255 243 0 242 0 0 -730 0 -730 270 0 270 0 2 728
3 727 90 3 90 3 248 247 c136 136 247 250 247 254 0 5 -269 8 -598 8 l-597 0
-255 -255z"/>
<path d="M11668 1633 l-3 -378 -352 -3 -353 -2 0 377 0 378 -270 -270 -270
-270 0 -712 0 -713 270 0 270 0 2 368 3 367 350 0 350 0 3 -367 2 -368 280 0
280 0 0 985 0 985 -280 0 -280 0 -2 -377z"/>
<path d="M12642 1737 l-272 -272 0 -713 0 -712 620 0 620 0 0 240 0 240 -350
0 -351 0 3 122 3 123 348 3 347 2 0 235 0 235 -350 0 -350 0 0 130 0 130 353
0 352 0 248 248 c136 136 247 250 247 255 0 4 -269 7 -598 7 l-597 0 -273
-273z"/>
<path d="M672 1327 l-672 -672 2 -308 3 -308 412 406 c226 223 414 405 417
405 3 0 6 -183 6 -407 l0 -408 430 430 430 430 0 -433 0 -432 255 0 255 0 0
982 0 983 -87 -86 c-49 -47 -239 -233 -423 -414 l-335 -329 -3 417 c-1 229 -6
417 -10 417 -4 0 -310 -303 -680 -673z"/>
<path d="M4620 1985 c-222 -48 -437 -255 -480 -462 -17 -80 -7 -242 19 -323
43 -136 146 -268 270 -349 87 -56 196 -89 330 -99 119 -9 155 -24 172 -69 14
-37 0 -91 -32 -127 l-27 -31 -386 -3 -386 -3 0 -244 0 -245 418 0 c323 0 432
4 485 15 205 43 398 233 453 446 26 100 22 245 -10 344 -51 158 -171 288 -326
351 -81 33 -134 43 -270 54 -173 13 -217 38 -227 134 -5 38 -1 48 25 77 l30
34 389 5 390 5 259 252 259 253 -645 -1 c-510 0 -659 -3 -710 -14z"/>
<path d="M7652 1336 l-662 -664 0 -318 0 -319 625 625 625 625 0 -258 0 -257
-183 0 -182 0 -240 -240 -240 -240 423 0 422 0 0 -130 0 -130 270 0 270 0 0
985 0 985 -233 0 -233 0 -662 -664z"/>
<path d="M9828 1989 c-230 -34 -436 -137 -602 -301 -95 -95 -152 -176 -206
-292 -141 -301 -108 -676 83 -961 87 -129 246 -264 385 -327 125 -57 198 -70
420 -75 l202 -6 0 246 0 245 -157 4 c-199 5 -243 20 -343 114 -167 158 -208
392 -102 588 37 68 136 165 209 203 93 50 165 63 353 63 l165 0 255 255 255
255 -430 -1 c-237 -1 -456 -5 -487 -10z"/>
</g>
</svg>
